<?xml version="1.0" encoding="utf-8"?>
<!-- Generator: $$$/GeneralStr/196=Adobe Illustrator 27.6.0, SVG Export Plug-In . SVG Version: 6.00 Build 0)  -->
<svg version="1.1" id="圖層_1" xmlns="http://www.w3.org/2000/svg" xmlns:xlink="http://www.w3.org/1999/xlink" x="0px" y="0px"
	 viewBox="0 0 20 20" style="enable-background:new 0 0 20 20;" xml:space="preserve">
<g>
	<path d="M10,6.7c-1.8,0-3.3,1.5-3.3,3.3c0,1.8,1.5,3.3,3.3,3.3c1.8,0,3.3-1.5,3.3-3.3C13.3,8.2,11.8,6.7,10,6.7z"/>
	<path d="M19.5,2.9c-0.8-1.6-2-2.5-3.7-2.8c-0.1,0-0.2,0-0.2-0.1C11.8,0,8.1,0,4.4,0C3.9,0.1,3.4,0.2,2.9,0.5C1.3,1.3,0.3,2.6,0,4.3
		c0,0.2,0,0.5,0,0.7c0,3.3,0,6.6,0,9.9c0,2.4,1.6,4.5,4,5c0.2,0,0.3,0.1,0.5,0.1c3.7,0,7.4,0,11.1,0c0.5-0.1,1.1-0.2,1.6-0.5
		c1.5-0.8,2.4-2,2.8-3.7c0-0.1,0-0.2,0.1-0.3c0-3.7,0-7.4,0-11.1C19.8,3.9,19.7,3.4,19.5,2.9z M10,15c-2.8,0-5-2.2-5-5
		c0-2.8,2.2-5,5-5c2.8,0,5,2.2,5,5C15,12.8,12.7,15,10,15z M15.4,5.8c-0.7,0-1.3-0.5-1.3-1.2c0-0.7,0.5-1.3,1.2-1.3
		c0.7,0,1.3,0.5,1.3,1.2C16.7,5.2,16.1,5.8,15.4,5.8z"/>
</g>
</svg>
